<svg xmlns="http://www.w3.org/2000/svg" viewBox="0 0 62.46 36.108"><path d="M16.48,33.1a13.289,13.289,0,0,1-3.54-9.537,12.956,12.956,0,0,1,4.065-9.228,5.4,5.4,0,0,1,4.377-1.574,6.007,6.007,0,0,1,3.832,3.307,23.445,23.445,0,0,1,1.826,5.4,36.9,36.9,0,0,1,.679-8.729c.682-2.816,2.152-5.494,4.366-6.715,3.377-1.863,7.624.334,9.633,4.1s2.127,8.612,1.295,12.973a4.34,4.34,0,0,1,2.785-3.37,3.49,3.49,0,0,1,3.758,1.454,7.136,7.136,0,0,1,.969,4.915,20.607,20.607,0,0,1-1.44,4.895A69.367,69.367,0,0,0,62.46,33.338c-15.83,2.368-31.8,2.786-47.739,2.769q-6.7-.008-13.407-.084c2.513-.578,5.068-.984,7.6-1.469l3.85-.739C13.338,33.705,16.118,32.738,16.48,33.1Z" fill="#eb4559"/><path d="M5.028,9.2A4.407,4.407,0,0,1,3.854,6.038,4.3,4.3,0,0,1,5.2,2.978a1.785,1.785,0,0,1,1.451-.521,1.992,1.992,0,0,1,1.271,1.1,7.8,7.8,0,0,1,.6,1.791A12.289,12.289,0,0,1,8.754,2.45,3.416,3.416,0,0,1,10.2.224c1.119-.618,2.527.111,3.193,1.358a6.692,6.692,0,0,1,.43,4.3,1.436,1.436,0,0,1,.923-1.117,1.157,1.157,0,0,1,1.246.482,2.363,2.363,0,0,1,.321,1.629A6.878,6.878,0,0,1,15.838,8.5a22.969,22.969,0,0,0,4.434.778A105.97,105.97,0,0,1,4.445,10.2q-2.223,0-4.445-.028c.833-.192,1.68-.326,2.519-.487L3.8,9.436C3.986,9.4,4.908,9.079,5.028,9.2Z" fill="#eb4559"/></svg>