<svg xmlns="http://www.w3.org/2000/svg" viewBox="0 0 59.116 31.47"><path d="M59.029,12.163c.8-3.806-4.125-6.118-6.342-2.834-.286,0-.573.006-.86.01q-1.17.03-2.337.13c-1.608.141-3.21.38-4.8.677a3.552,3.552,0,0,0-2.458,4.33,3.6,3.6,0,0,0,4.33,2.458c1.687-.315,3.927-.254,6.052-.462a5.707,5.707,0,0,0,1.27,1.077c3.19,2,6.151-1.834,4.9-4.575A5.586,5.586,0,0,0,59.029,12.163Z" fill="#fff"/><path d="M16.462.16S47.71-2.476,48.706,13.665,24.482,31.236,24.482,31.236Z" fill="#eb4559"/><path d="M.293,20.623A18.3,18.3,0,0,1,3.677,6.329,17.69,17.69,0,0,1,15.258.291c18.909-2.46,23.674,30.529,9.224,30.945C18,31.423,9.452,32.49,4.129,27.772A12.485,12.485,0,0,1,.293,20.623Z" fill="#da717e"/><path d="M19.68,16.848a3.833,3.833,0,1,1-3.833-3.833A3.833,3.833,0,0,1,19.68,16.848Z" fill="#fff"/></svg>