<svg xmlns="http://www.w3.org/2000/svg" xmlns:xlink="http://www.w3.org/1999/xlink" viewBox="0 0 684.16 437.084"><defs><linearGradient id="a" x1="443.391" y1="268.607" x2="451.257" y2="394.457" gradientUnits="userSpaceOnUse"><stop offset="0" stop-color="#ffb000"/><stop offset="1" stop-color="#ff7900"/></linearGradient><linearGradient id="b" x1="145.412" y1="234.552" x2="146.313" y2="226.031" gradientUnits="userSpaceOnUse"><stop offset="0" stop-color="#ffc5ae"/><stop offset="1" stop-color="#ea8b6a"/></linearGradient><linearGradient id="c" x1="156.768" y1="231.703" x2="148.903" y2="232.276" xlink:href="#b"/><linearGradient id="d" x1="146.471" y1="263.808" x2="153.681" y2="237.917" xlink:href="#b"/><linearGradient id="e" x1="434.147" y1="168.881" x2="434.475" y2="161.384" xlink:href="#b"/><linearGradient id="f" x1="435.603" y1="172.069" x2="435.357" y2="166.743" xlink:href="#b"/><linearGradient id="g" x1="419.165" y1="212.27" x2="425.064" y2="173.925" xlink:href="#b"/><linearGradient id="h" x1="452.17" y1="166.02" x2="456.758" y2="190.218" xlink:href="#b"/><linearGradient id="i" x1="322.035" y1="130.325" x2="324.904" y2="136.42" xlink:href="#b"/><linearGradient id="j" x1="317.686" y1="130.174" x2="324.814" y2="133.165" xlink:href="#b"/><linearGradient id="k" x1="321.777" y1="127.88" x2="326.366" y2="137.63" xlink:href="#b"/><linearGradient id="l" x1="387.112" y1="137.529" x2="374.084" y2="153.014" xlink:href="#b"/><linearGradient id="m" x1="350.676" y1="161.132" x2="349.283" y2="144.909" xlink:href="#b"/><linearGradient id="n" x1="348.293" y1="161.259" x2="348.949" y2="157.08" xlink:href="#b"/><linearGradient id="o" x1="589.348" y1="71.587" x2="368.455" y2="122.714" gradientUnits="userSpaceOnUse"><stop offset="0" stop-color="#fff" stop-opacity="0"/><stop offset="1" stop-color="#98c4f9"/></linearGradient><linearGradient id="p" x1="-1412.095" y1="797.8" x2="-1632.996" y2="848.929" gradientTransform="translate(-1304.153 -638.719) rotate(-124.327)" xlink:href="#o"/><linearGradient id="q" x1="612.325" y1="295.286" x2="295.249" y2="368.674" xlink:href="#o"/><linearGradient id="r" x1="-1727.486" y1="312.95" x2="-2044.562" y2="386.339" gradientTransform="matrix(-1, 0, 0, 1, -1655.652, 0)" xlink:href="#o"/></defs><g style="isolation:isolate"><path d="M518.679,304.536l-9.195-26.973L494.129,282.8,462.77,190.774l-34.963,11.911.106.313-11.278,48.677-16.044,69.251,9.36,20.665,33.014-11.25,12.017-4.1,13.379-4.561,10.923,32.058,34.963-11.912-10.923-32.058ZM455.106,296.1l-7.93,2.7-15.19,5.177L442.353,252.5l.975-4.271,15.838,46.479Z" fill="#98c4f9"/><polygon points="503.324 309.772 514.247 341.83 491.978 332.304 456.385 204.06 443.328 248.232 437.282 273.251 416.635 251.675 427.913 202.998 427.807 202.685 462.77 190.774 494.129 282.795 509.484 277.563 518.679 304.536 503.324 309.772" opacity="0.25" style="mix-blend-mode:overlay"/><path d="M454.982,326.245l-12.017,4.1,1.765-24.766V301.06l2.446-2.262,1.572-1.452,6.358-1.251S454.711,314.287,454.982,326.245Z" opacity="0.25" style="mix-blend-mode:overlay"/><path d="M455.108,296.094a9.987,9.987,0,0,0-8.248-3.336c-5.244.437-8.17,2.4-8.345,7.866s1.126,32.992-.071,43.917,6.251,12.017,6.678,3.932-2.738-33.429-.391-37.58.92,4.588,3.381,7.429,5.084-2.185,2.462-8.958S455.108,296.094,455.108,296.094Z" fill="url(#a)"/><path d="M134.93,255.309a6.212,6.212,0,0,1-1.849-.169c-.336-.141-1.357-.568-10.279-16.494l1.6-.9c3.332,5.948,8.384,14.6,9.455,15.711a95.993,95.993,0,0,0,11.036-.691l.184,1.83C142.1,254.9,137.536,255.309,134.93,255.309Z" fill="#ff6643"/><path d="M167.273,263.031v.533s-.487,10.11-8.055,9.673c-.018,0-.037,0-.055,0-4.68-.3-10.473-2.487-14.358-4.11-2.441-1.02-4.133-1.82-4.321-1.788-.492.078,5.733,25.971,5.65,27.446a2.46,2.46,0,0,1-.124.626c-.441,1.4-1.982,3.084-2.906,3.222-.1.014-.294-.165-.574-.515-2.814-3.5-13.953-23.819-14.257-30.453-.326-7.291,3.361-11.682,8.358-12.518,3.687-.617,14.468.869,19.87,1.691,1.917.295,3.154.5,3.154.5Z" fill="#092533"/><path d="M146.134,294.78a2.46,2.46,0,0,1-.124.626c-.441,1.4-1.982,3.084-2.906,3.222-.1.014-.294-.165-.574-.515,3.963-5.6-6.4-32.834-4.143-32.912,1.113-.037,3.573,1.852,6.418,3.921-2.441-1.02-4.133-1.82-4.321-1.788C139.992,267.412,146.217,293.305,146.134,294.78Z" opacity="0.25" style="mix-blend-mode:overlay"/><path d="M167.273,263.031v.533s-.487,10.11-8.055,9.673c1.49-1.191,1.766-3.287,1.655-5.825-.128-2.938-2.846-7.967-4.372-10.579,1.917.295,3.154.5,3.154.5Z" opacity="0.25" style="mix-blend-mode:overlay"/><path d="M151.168,229.838a2.114,2.114,0,0,0-.418.979l-.028-.046c-.087-.156-.4-.7-.814-1.338-.689-1.067-1.641-2.391-2.215-2.552-.925-.252-3.384,2.855-6.708,3.1a5.48,5.48,0,0,1-.667.014c-3.659-.166-7.539-5.357-4.422-11.471a4.038,4.038,0,0,0,3.328,2.294,1.93,1.93,0,0,1-1.416-1.968c3.986.708,6.059-2.294,9.5-1.2s3.223,3.168,3.223,3.168,2.62-1.039,3.439,2.239C154.63,225.682,152.18,228.265,151.168,229.838Z" fill="#092533"/><path d="M150.722,230.771a6.981,6.981,0,0,1-1.282,2.459,3.611,3.611,0,0,1-2.786,1.518c-2.327-.056-4.639-3.177-5.669-4.763,3.324-.249,5.783-3.356,6.708-3.1.574.161,1.526,1.485,2.215,2.552C150.318,230.067,150.635,230.615,150.722,230.771Z" fill="url(#b)"/><path d="M154.083,231.088s-1.747,3.991-2.405,3.117a4.311,4.311,0,0,0-2.238-.975,6.981,6.981,0,0,0,1.282-2.459l.028.046a2.114,2.114,0,0,1,.418-.979A7.772,7.772,0,0,0,154.083,231.088Z" fill="url(#c)"/><path d="M166.372,264.791c-2.786-.409-10.321-8.6-10.321-12.127a11.121,11.121,0,0,0-.148-1.651c-.579-3.669-2.7-9.047-3.581-12.85-1.025-4.422.451-6.077.451-6.077,3.429-5.9,11.191,5.792,15.619,15.167l0,0a24.3,24.3,0,0,1,2.566,8.055C171.279,261.95,169.158,265.2,166.372,264.791Z" fill="#4d5aff"/><path d="M166.372,264.791c-2.786-.409-10.321-8.6-10.321-12.127a11.121,11.121,0,0,0-.148-1.651l-.018-1.572,2.731-14.307s3.77,4.482,4.372,12.509,9.436,9.774,5.408-.386a24.3,24.3,0,0,1,2.566,8.055C171.279,261.95,169.158,265.2,166.372,264.791Z" opacity="0.25" style="mix-blend-mode:overlay"/><path d="M160.528,247.1a.983.983,0,0,1-.372.161,22.044,22.044,0,0,1-6.625,0,2.566,2.566,0,0,1-.542-.157c-1.035-.492,0-1.7-.327-3.825s-1.144-8.358,2.023-10.27c3.315-2,5.733,5.572,5.843,9.342S161.241,246.494,160.528,247.1Z" fill="#4d5aff"/><path d="M160.156,247.257s-.152,9.209-1.908,13.553v.009c-.547,1.352-1.25,2.23-2.156,2.212-3.811-.083-12.372-9.135-13.153-9.466s-4.671.248-4.547-.327,1.641-1.843,3.278-2.455,1.352-.248,11.88,4.589c-.143-.929-.083-4.947-.037-7.223,0-.345.014-.648.018-.9A22.044,22.044,0,0,0,160.156,247.257Z" fill="url(#d)"/><path d="M149.274,301.005c.267,1.642-10.758,12.864-10.183,9.917s4.013-12.294,4.013-12.294c.924-.138,2.465-1.82,2.906-3.222C146.911,296.969,149.049,299.644,149.274,301.005Z" fill="#4d5aff"/><path d="M159.218,266.54s-17.7-3.323-21.194-1.716,6.4,29.573,6.4,29.573" fill="none" stroke="#fff" stroke-miterlimit="10" stroke-width="0.46" opacity="0.25" style="mix-blend-mode:overlay"/><path d="M158.248,260.81c.336-1.848.589-7.222-.34-9.346-.625-1.435-2.952-2.667-4.395-3.315,0-.345.014-.648.018-.9a22.044,22.044,0,0,0,6.625,0S160,256.466,158.248,260.81Z" opacity="0.25" style="mix-blend-mode:overlay"/><path d="M444.257,198.529a51.4,51.4,0,0,1-1.885,5.531c-1.324,3.407-3.324,8.05-6.271,14.523-.074,3.287-1.122,24.256-1.407,29.083-.037.589-.06.938-.069.984-.041.212-.8.616-1.627.823-.782.2-1.619.23-1.977-.248-.74-.984-5.738-20.813-5.981-25.484s-.492-3.6,5.241-22.2c-1.393.652-10.423.409-10.423.409s1.655,22.775,1.665,22.941a.538.538,0,0,1-.046.156,4.136,4.136,0,0,1-.8,1.356c-.161.161-.326.253-.478.207a2.5,2.5,0,0,1-.607-.542,60.9,60.9,0,0,1-9.061-13.8c-3.03-6.8-3.77-11.553-.9-16.3s17.4-5.116,17.4-5.116c.92.257,3.034.51,5.126,1.007.616.142,1.232.312,1.812.5,3.181,1.058,9.245,2.4,10.551,1.646A8,8,0,0,1,444.257,198.529Z" fill="#6c5be8"/><path d="M456.3,182.7c-.574.326-7.25.078-11.76-1.641.023.795.124,2.045.239,3.466.179,2.239.386,4.9.336,6.841-.028,1.384-.189,2.4-.575,2.639a.026.026,0,0,1-.018.009c-.695.4-2.727.207-4.961-.216-1.443-.276-2.97-.648-4.271-1.021-.473-.138-.919-.275-1.319-.409-2.556-.855-5.747-1.181-6.938-1.512-.3-.083-.469-.161-.478-.253-.037-.451,1.108-1.471,1.646-2.538.064-.133.152-.331.248-.584A45.086,45.086,0,0,0,429.9,182.9c.2-.795.271-1.319.1-1.227-.534.285-3.688,6.183-4.055,6.183a6.952,6.952,0,0,1-1.518-.873c-1.268-.86-2.864-2.124-2.9-2.727a.226.226,0,0,1,.073-.206c.74-.7,6.39-10.2,8.441-12.23a9.1,9.1,0,0,1,4.836-2.344,13,13,0,0,1,3.642.423c4.064,1.016,7.792,3.581,9.916,4.85,2.745,1.637,4.63,1.186,5.324,1.595S456.867,182.365,456.3,182.7Z" fill="#ff6643"/><path d="M445.112,191.362c-3.779.046-12.179-.29-16.666-3.885A45.086,45.086,0,0,0,429.9,182.9s8.868,2.69,14.877,1.623C444.955,186.76,445.162,189.422,445.112,191.362Z" fill="#ff9280"/><path d="M438.515,169.9c-.148,1.572-.7,3.264-2.414,3.131a3.23,3.23,0,0,1-3.044-3.081,8.441,8.441,0,0,1,1.816-.473A13,13,0,0,1,438.515,169.9Z" opacity="0.25" style="mix-blend-mode:overlay"/><path d="M437.494,166.472a6.736,6.736,0,0,0-1.232-2.543c-.667,1.085-3.237,1.642-5.218,1.784a7.943,7.943,0,0,1-2.156-.06,6.082,6.082,0,0,1,5.369-7.949c2.414-.165,4.589,1.633,3.931,4.377C440.358,164.219,437.494,166.472,437.494,166.472Z" fill="#350909"/><path d="M437.494,166.472a9.212,9.212,0,0,1-.648,1.577h0a2.225,2.225,0,0,1-3.03,1.209,1.685,1.685,0,0,1-.161-.074,4.678,4.678,0,0,1-2.367-2.7,5.9,5.9,0,0,1-.239-.772c1.981-.142,4.551-.7,5.218-1.784l.11.124A7.083,7.083,0,0,1,437.494,166.472Z" fill="url(#e)"/><path d="M437.287,170.651c-.244,1.517-2.745,1.434-3.016.45-.142-.51-.3-1-.427-1.361-.111-.335-.194-.551-.194-.551v0a1.685,1.685,0,0,0,.161.074,2.225,2.225,0,0,0,3.03-1.209h0c-.17.34.285.767.436,1.572A2.938,2.938,0,0,1,437.287,170.651Z" fill="url(#f)"/><path d="M424.3,230.706c-.243,1.885-9.994,9.26-9.829,7.949s5.126-12.587,5.126-12.587a2.5,2.5,0,0,0,.607.542c.492.143,1.117-1.108,1.274-1.563C422.787,226.693,424.52,229.024,424.3,230.706Z" fill="#12006d"/><path d="M431.021,264.575c-2.294-4.919,0-15.35,0-15.35.735.984,3.521-.166,3.6-.575.009-.046.032-.4.069-.984,0,0,.368,5,.805,9.232S433.315,269.49,431.021,264.575Z" fill="#12006d"/><path d="M430.281,201.541c-1.393.652-10.423.409-10.423.409s1.655,22.775,1.665,22.941a.538.538,0,0,1-.046.156,4.136,4.136,0,0,1-.8,1.356c-1.664-7.792-4.983-22.734-2.335-25.3,3.388-3.278,12.564-4.152,12.7-3.434A18.953,18.953,0,0,1,430.281,201.541Z" opacity="0.25" style="mix-blend-mode:overlay"/><path d="M423.784,190.778a1.079,1.079,0,0,0-.16.658c.2.763-.851,10.321-.469,11.3a18.456,18.456,0,0,1,.381,6.065c-.22,1.967-4.317,3.167-4.317,1.475s.492-5.682.658-7.213-1.366-12.588-.957-14.119a17.571,17.571,0,0,1,1.973-3.742c.363-.565.63-.952.63-.952.059.961,4.082,3.6,4.418,3.6A18.2,18.2,0,0,0,423.784,190.778Z" fill="url(#g)"/><path d="M444.257,198.529A8.516,8.516,0,0,1,439,196.185a25.872,25.872,0,0,0-6.846-4.326c.616.142,1.232.312,1.812.5,3.181,1.058,9.245,2.4,10.551,1.646A8,8,0,0,1,444.257,198.529Z" opacity="0.25" style="mix-blend-mode:overlay"/><path d="M442.372,204.06c-1.324,3.407-3.324,8.05-6.271,14.523-.074,3.287-1.122,24.256-1.407,29.083-.037.589-.06.938-.069.984-.041.212-.8.616-1.627.823.188-7.071-.06-22.463,1.135-27.042C435.563,216.951,441.972,204.814,442.372,204.06Z" opacity="0.25" style="mix-blend-mode:overlay"/><path d="M435.287,192.773c-.473-.138-.919-.275-1.319-.409-2.556-.855-5.747-1.181-6.938-1.512-.3-.083-.469-.161-.478-.253-.037-.451,1.108-1.471,1.646-2.538s2.331-6.68,1.8-6.39-3.688,6.183-4.055,6.183a6.952,6.952,0,0,1-1.518-.873c.079-.134.166-.267.263-.409,1.963-2.9,5.185-6.5,5.732-9.614.437-2.294,1.095-.983.984,1.968C431.3,181.574,431.159,189.684,435.287,192.773Z" opacity="0.25" style="mix-blend-mode:overlay"/><path d="M444.537,194a.026.026,0,0,1-.018.009c-.695.4-2.727.207-4.961-.216,4-4,1.816-14.85,2.441-14.293a16.123,16.123,0,0,0,2.538,1.554C444.62,184.006,445.811,193.224,444.537,194Z" opacity="0.25" style="mix-blend-mode:overlay"/><path d="M425.941,187.854a18.2,18.2,0,0,0-2.157,2.924c-.013-.244-.032-.469-.055-.671-.124-1.172-1.949-3.719-2.836-4.9.363-.565.63-.952.63-.952C421.582,185.215,425.605,187.854,425.941,187.854Z" opacity="0.25" style="mix-blend-mode:overlay"/><path d="M436.372,164.053c-.984,2.175-3.875,2.428-5.089,2.432a5.9,5.9,0,0,1-.239-.772c1.981-.142,4.551-.7,5.218-1.784Z" opacity="0.25" style="mix-blend-mode:overlay"/><path d="M437.282,169.621a1.754,1.754,0,0,1-.689.313,4.223,4.223,0,0,1-2.749-.194c-.111-.335-.194-.551-.194-.551v0a1.685,1.685,0,0,0,.161.074,2.225,2.225,0,0,0,3.03-1.209h0C436.676,168.389,437.131,168.816,437.282,169.621Z" opacity="0.25" style="mix-blend-mode:overlay"/><line x1="450.356" x2="450.356" y2="204.06" fill="none" stroke="#092533" stroke-miterlimit="10" stroke-width="0.919"/><path d="M458.959,179.772c-.009.055-.023.11-.032.161-.543,2.469-2.519,2.731-2.892,2.57s-1.356-1.292-2.216-5.278c-.018-.078-.032-.156-.05-.239,0,0-1.858-4.763-2.731-7.052-2.156-1.279-2.566-.759-2.869-2.235a4.3,4.3,0,0,1,1.205-3.659c.547-.272,3,2.023,3.333,2.868S459.451,177.151,458.959,179.772Z" fill="url(#h)"/><path d="M458.927,179.933c-.543,2.469-2.519,2.731-2.892,2.57s-1.356-1.292-2.216-5.278a8.409,8.409,0,0,0,2.313,3.135A2,2,0,0,0,458.927,179.933Z" opacity="0.25" style="mix-blend-mode:overlay"/><path d="M386.541,309l-5.269-26.908q-5.847-29.854-22.55-43.561t-41.28-8.891q-24.57,4.814-34.844,23.69t-4.408,48.838l5.287,27.01q5.826,29.75,22.531,43.455a43.58,43.58,0,0,0,15.53,8.266q11.593,3.4,25.847.607a61.773,61.773,0,0,0,13.48-4.175,43.939,43.939,0,0,0,21.267-19.5Q392.407,338.952,386.541,309Zm-32.89,36.117q-2.7,8.276-11.434,9.986-9.04,1.772-14.7-5.08-3.862-4.669-6.6-13.861v-.01c0-.009,0-.018-.009-.032q-1.269-4.262-2.29-9.5l-7.4-37.777q-2.6-14.882-.018-22.978t11.415-9.824a14.175,14.175,0,0,1,11.622,2.266h0a17,17,0,0,1,3.112,3.016q5.7,7.055,8.823,23l7.158,36.554Q356.355,336.839,353.651,345.117Z" fill="#ff6643"/><path d="M356.3,350.165c1.517,2.336,3.535,18.215,4.57,27.166a61.773,61.773,0,0,1-13.48,4.175q-14.255,2.786-25.847-.607a22.943,22.943,0,0,0,.856-2.221c4.822-14.735-1.2-41.321-1.481-42.516q2.737,9.192,6.6,13.861,5.668,6.853,14.7,5.08,8.732-1.71,11.434-9.986t-.317-24.242l-7.158-36.554q-3.117-15.936-8.823-23a17,17,0,0,0-3.112-3.016c11.627,2.281,21.07,38.278,25,55.643S363.508,339.352,356.3,350.165Z" opacity="0.25" style="mix-blend-mode:overlay"/><path d="M323.479,343.225s.753,1.971,4.714,3.064,7.674-5.034,10.3-3.064,6.818,10.14,10.51,8.9,4.784,18.42,3.036,20.605-3-15.474-7.62-14.947-1.119,13.854-3.741,16.258-1.53-5.9-4.37-7.429,3.059,66.858-1.311,67.951-7.21-3.059-5.462-17.7-.437-65.11-3.059-67.732S324.014,346.015,323.479,343.225Z" fill="#6c5be8"/><line x1="322.394" x2="322.394" y2="238.573" fill="none" stroke="#092533" stroke-miterlimit="10" stroke-width="0.919"/><path d="M379.114,146.316s-3.482-9.546-3.195-10.283,4.112-2.13,4.391-1.721,2.7,7.825,2.287,8.357S379.114,146.316,379.114,146.316Z" fill="#12006d"/><path d="M321.187,133.8a6.247,6.247,0,0,1,3.07,3.176c.945,2.294.576-5.981.576-5.981l-1.024-.942Z" fill="url(#i)"/><path d="M320.081,133.8a30.977,30.977,0,0,0,3.114,2.111c.45.123,1.321-5.08.926-5.9s-1.838-1.639-2.775-1.106S319.644,133.477,320.081,133.8Z" fill="url(#j)"/><path d="M327.168,134.394s-2.12-4.916-3.047-5.776-2.647.246-2.77.7,2.058.779,2.77,1.516-1.213,6.186.63,8.111S327.168,134.394,327.168,134.394Z" fill="url(#k)"/><path d="M376.493,147.422a11.883,11.883,0,0,0,2.294-1.557c.409-.533-.328-2.54.86-4.384s3.728-1.31,4.342.9-.983,5-1.72,5.858-5.776,4.465-5.776,4.465" fill="url(#l)"/><path d="M377.843,151.7a4.408,4.408,0,0,1-1.044,1.65c-2.391,2.795-8.979,8.266-20.854,14.519-.234.956-.418,1.931-.556,2.905a47.661,47.661,0,0,0-.285,9.085c.037.726.083,1.434.133,2.115.216,2.979.511,5.438.432,6.863a1.877,1.877,0,0,1-.358,1.237,6.885,6.885,0,0,1-.841.634c-5.931,3.807-16.726-1.88-18.473-3.59a.827.827,0,0,1-.239-.322c-.3-1.149.874-2.377,1.531-4.344a13.447,13.447,0,0,0,.331-2.111c.313-3.029.584-8.45.68-12.527a39.783,39.783,0,0,0-.078-5.2.053.053,0,0,1,0-.019c-.327-1.337-10.271-16.362-13.255-21.686a6.426,6.426,0,0,1-.841-1.8c.11-1.2,2.4-5.461,2.9-5.406a4.582,4.582,0,0,1,.846,1.025c2.3,3.2,8.5,12.873,9.641,14.1,1.067,1.154,6.5,6.868,8.823,9.319.657.685,1.066,1.117,1.066,1.117a27.743,27.743,0,0,0,3.788-.336c11.177-1.724,22.16-9.549,25.033-11.723.474-.359.727-.561.727-.561S378.091,150.165,377.843,151.7Z" fill="#ff7900"/><path d="M349.952,164.2c-3.811.616-3.822-4.343-3.624-6.058.657.685,1.066,1.117,1.066,1.117a27.743,27.743,0,0,0,3.788-.336C351.656,160.881,351.276,163.993,349.952,164.2Z" fill="#c64200"/><path d="M353.812,153.571a3.715,3.715,0,0,1-2.938.281,10.881,10.881,0,0,1-3.347-1.637,6.085,6.085,0,0,0-1.1,3.48c-2.7-2.335-3.361-4.671-1.067-5.53-.942-4.1,1.067-4.956,4.423-5.159s4.138,3.237,6.147,3.154C356.046,150,355.527,152.555,353.812,153.571Z" fill="#12006d"/><path d="M353.812,153.571c-.037.331-.092.713-.17,1.122-.451,2.395-1.627,5.738-3.4,5.554a1.172,1.172,0,0,1-.29-.055A5.5,5.5,0,0,1,346.893,157a8.473,8.473,0,0,1-.469-1.306,7.272,7.272,0,0,1,.3-1.825,5.064,5.064,0,0,1,.8-1.655,10.881,10.881,0,0,0,3.347,1.637A3.715,3.715,0,0,0,353.812,153.571Z" fill="url(#m)"/><path d="M350.24,161.658c-.018.869-.138,1.55-.717,1.591-1.173.083-2.731-1.448-2.648-3.113.027-.565.036-1.167.036-1.719s-.009-1.062-.018-1.416a5.5,5.5,0,0,0,3.057,3.191,1.172,1.172,0,0,0,.29.055C350.235,160.73,350.254,161.217,350.24,161.658Z" fill="url(#n)"/><path d="M377.843,151.7a4.408,4.408,0,0,1-1.044,1.65,43.605,43.605,0,0,0-.584-6.142c.474-.359.727-.561.727-.561S378.091,150.165,377.843,151.7Z" fill="#c64200"/><path d="M327.864,134.722c-1.747,1.494-2.6,4.749-2.9,6.183a6.426,6.426,0,0,1-.841-1.8c.11-1.2,2.4-5.461,2.9-5.406A4.582,4.582,0,0,1,327.864,134.722Z" fill="#c64200"/><path d="M355.237,181.97c-3.907.565-11.259,1.066-17.617-1.633.313-3.029.584-8.45.68-12.527,3.15,1.333,9.949,3.7,17.089,2.96A52.611,52.611,0,0,0,355.237,181.97Z" fill="#ffb000"/><path d="M354.47,190.7c-6.391,4.1-18.427-2.818-18.712-3.912-.3-1.149.874-2.377,1.531-4.344a13.447,13.447,0,0,0,.331-2.111c.313-3.029.584-8.45.68-12.527a39.783,39.783,0,0,0-.078-5.2,113.462,113.462,0,0,1,3.407,13.939c1.149,6.882.9,10.16,4.262,12.372C347.858,190.213,351.449,190.893,354.47,190.7Z" opacity="0.25" style="mix-blend-mode:overlay"/><path d="M369.075,209.623c0,2.841-10.27,18.583-12.4,21.814-.243.373-.381.58-.381.58a13.759,13.759,0,0,1-2.414-.52c-.758-.262-1.407-.62-1.407-1.117a3.485,3.485,0,0,1,.051-.464c.363-2.193,2.62-10.128,5.517-20.62-1.527-1.857-12.234-8.96-12.234-8.96a.109.109,0,0,0-.009.028c-.464,1.071-15.328,35.441-17.015,38.645a1.438,1.438,0,0,1-.129.221c-.763.984-3.931,1.09-4.151-.984v-.009c-.911-8.689,6.583-34.894,10.073-46.484.625-2.078,1.121-3.687,1.42-4.639,1.747,1.71,12.542,7.4,18.473,3.59a6.885,6.885,0,0,0,.841-.634,1.877,1.877,0,0,0,.358-1.237c.111.12.226.249.341.387C360.147,193.95,369.075,206.887,369.075,209.623Z" fill="#98c4f9"/><path d="M329.832,243.818c-.409,2.046-11.227,8.11-10.243,4.441.8-2.974,3.807-8.165,4.915-10.022v.009c.22,2.074,3.388,1.968,4.151.984a1.438,1.438,0,0,0,.129-.221C329.336,240.591,330.1,242.494,329.832,243.818Z" fill="#12006d"/><path d="M360.23,242.016c-.823.409-11.47-3.687-11.227-5.08s3.522-7.02,3.522-7.02a3.485,3.485,0,0,0-.051.464c0,1.2,3.821,1.637,3.821,1.637s.138-.207.381-.58C357.15,235.69,361,241.63,360.23,242.016Z" fill="#12006d"/><path d="M344.415,199.163s-11.8,23.171-16.222,39.074" fill="none" stroke="#000" stroke-miterlimit="10" stroke-width="0.46" opacity="0.25" style="mix-blend-mode:overlay"/><path d="M347.2,199.163s13.11,8.6,13.6,10-6.8,20.757-6.8,20.757" fill="none" stroke="#000" stroke-miterlimit="10" stroke-width="0.46" opacity="0.25" style="mix-blend-mode:overlay"/><path d="M356.01,189.22c-1.444,5.765-9.8,4.2-14.078,3.089a25.339,25.339,0,0,0-7.355-.556c.625-2.078,1.121-3.687,1.42-4.639,1.747,1.71,12.542,7.4,18.473,3.59a6.885,6.885,0,0,0,.841-.634,1.877,1.877,0,0,0,.358-1.237C355.78,188.953,355.9,189.082,356.01,189.22Z" opacity="0.25" style="mix-blend-mode:overlay"/><path d="M353.881,231.5c-.758-.262-1.407-.62-1.407-1.117a3.485,3.485,0,0,1,.051-.464c.363-2.193,2.62-10.128,5.517-20.62-1.527-1.857-12.234-8.96-12.234-8.96s.874-2.947,1.857-3.168,12.344,9.558,13.6,11.581C362.372,210.529,354.635,225.038,353.881,231.5Z" opacity="0.25" style="mix-blend-mode:overlay"/><path d="M353.812,153.571c-.037.331-.092.713-.17,1.122-2.864,1.457-5.673-1.825-6.009-1.784-.193.023-.588.52-.91.961a5.064,5.064,0,0,1,.8-1.655,10.881,10.881,0,0,0,3.347,1.637A3.715,3.715,0,0,0,353.812,153.571Z" opacity="0.25" style="mix-blend-mode:overlay"/><path d="M350.24,161.658c-1.89-.46-2.933-2.354-3.329-3.241,0-.556-.009-1.062-.018-1.416a5.5,5.5,0,0,0,3.057,3.191,1.172,1.172,0,0,0,.29.055C350.235,160.73,350.254,161.217,350.24,161.658Z" opacity="0.25" style="mix-blend-mode:overlay"/><path d="M355.389,170.77a47.661,47.661,0,0,0-.285,9.085c-.745-3.14-1.4-6.515-.634-8.469a23.162,23.162,0,0,1,1.475-3.521C355.711,168.821,355.527,169.8,355.389,170.77Z" opacity="0.25" style="mix-blend-mode:overlay"/><path d="M263.4,202.12l-35.372-6.078-.055.317-78.114,87.949-1.614,21.984,11.2,1.927,19.391,3.333,26.031,4.473,2.473.423-1.862,10.845-.864,5.016-2.846,16.573,23.024,3.959,12.349,2.119,5.572-32.434,15.539,2.666,4.689-27.3-15.539-2.666Zm-44.158,45.068-7.213,41.965-8.629-1.485-18.873-3.241,10.45-12.473,2.391-2.855L217.3,245.317l2.818-3.191Z" fill="#6c5be8"/><path d="M204.875,316.025l-26.031-4.473c3.067-10.128,6.892-24.086,5.687-27.125l18.873,3.241a18.932,18.932,0,0,1,2.423,8.588C206.286,302.987,205.284,309.86,204.875,316.025Z" opacity="0.25" style="mix-blend-mode:overlay"/><path d="M185.658,284.622s2.838-3.938,9.228-2.707,6.883,9.1,4.1,17.78-3.441,39-2.13,48.833.491,14.42-2.622,14.748-4.588-11.8-2.786-20.319,1.639-16.387-1.311-15.076-.491,4.588-1.966,7.538-5.9,1.147-5.736-4.425S191.506,289.213,185.658,284.622Z" fill="#98c4f9"/><polygon points="247.41 295.231 262.949 297.897 258.26 325.192 242.721 322.526 237.149 354.96 224.8 352.841 246.504 217.411 263.404 202.12 247.41 295.231" opacity="0.25" style="mix-blend-mode:overlay"/><line x1="236.836" x2="236.836" y2="211.087" fill="none" stroke="#092533" stroke-miterlimit="10" stroke-width="0.919"/><path d="M302.711,162.61a6.391,6.391,0,1,1-6.391-6.391A6.391,6.391,0,0,1,302.711,162.61Z" fill="#ff7900"/><path d="M525.07,243.826a6.391,6.391,0,1,1-6.391-6.391A6.39,6.39,0,0,1,525.07,243.826Z" fill="#6c5be8"/><path d="M190.922,197.165a6.391,6.391,0,1,1-6.391-6.391A6.391,6.391,0,0,1,190.922,197.165Z" fill="#98c4f9"/><path d="M296.32,392.608a6.391,6.391,0,1,1-6.39-6.39A6.39,6.39,0,0,1,296.32,392.608Z" fill="#ff6643"/><circle cx="482.146" cy="181.848" r="2.465" fill="#ff7900"/><circle cx="293.855" cy="220.231" r="2.465" fill="#98c4f9"/><path d="M222.58,186.855a2.465,2.465,0,1,1-2.465-2.465A2.464,2.464,0,0,1,222.58,186.855Z" fill="#6c5be8"/><path d="M553.592,51.764s-9.85-9.832-28.522-5.9-31.8,33.429-45.389,39.983-40.4,25.91-42.4,42.451c26.183-21.8,36.015-12.3,53.058-14.921s18.353-22.614,42.933-21.958,50.8,31.2,75.379,14.123S662.073,68.151,638.8,51.436,568.34,60.285,553.592,51.764Z" fill="url(#o)"/><path d="M154.744,118.217S152.179,131.9,165.956,145.1s45.537,7.4,58.616,14.936,44.177,18.749,58.967,11.074c-32.771-9.326-30.467-22.806-42.243-35.4s-29.025-2.4-42.345-23.073-2.883-59.543-30.844-70.214-61-23.03-61.687,5.612S153.464,101.232,154.744,118.217Z" fill="url(#p)"/><path d="M630.61,196.64s-39.984,43.869-48.5,95.3S532.6,340.1,518.679,364.351,471.588,390.57,456.384,400.4s-49.844-7.21-55.793,0,31.07,18.353,79.09,19.009,57.2-36.707,99.8-41.95,85.212-23.6,100.287-93.077S669.283,177.721,630.61,196.64Z" fill="url(#q)"/><path d="M53.549,214.305s39.984,43.869,48.505,95.3,49.507,48.157,63.426,72.409,47.092,26.219,62.3,36.051,49.843-7.21,55.793,0S252.5,436.42,204.478,437.076s-57.2-36.707-99.8-41.95-85.211-23.6-100.287-93.077S14.877,195.386,53.549,214.305Z" fill="url(#r)"/></g></svg>